HIERARCHY
ROOT Hips
{
    OFFSET   0.000000   0.000000   0.000000
    CHANNELS 6 Xposition Yposition Zposition Zrotation Xrotation Yrotation
    JOINT Chest
    {
        OFFSET   0.000000   8.007240   0.000000
        CHANNELS 3 Zrotation Xrotation Yrotation
        JOINT Chest2
        {
            OFFSET   0.000000  22.077100   0.000000
            CHANNELS 3 Zrotation Xrotation Yrotation
            JOINT Neck
            {
                OFFSET   0.000000  23.254800   0.000000
                CHANNELS 3 Zrotation Xrotation Yrotation
                JOINT Head
                {
                    OFFSET   0.000000  14.370000   1.956600
                    CHANNELS 3 Zrotation Xrotation Yrotation
                    End Site
                    {
                        OFFSET   0.000000  19.566000   0.000000
                    }
                }
            }
            JOINT LeftCollar
            {
                OFFSET   3.911900  19.017000  -0.467064
                CHANNELS 3 Zrotation Xrotation Yrotation
                JOINT LeftShoulder
                {
                    OFFSET  10.383700   0.000000   0.000000
                    CHANNELS 3 Zrotation Xrotation Yrotation
                    JOINT LeftElbow
                    {
                        OFFSET  26.662100   0.001476   0.000517
                        CHANNELS 3 Zrotation Xrotation Yrotation
                        JOINT LeftWrist
                        {
                            OFFSET  28.869000  -0.000025  -0.000106
                            CHANNELS 3 Zrotation Xrotation Yrotation
                            JOINT LeftFinger0
                            {
                                OFFSET   2.044660  -2.323460   3.252850
                                CHANNELS 3 Zrotation Xrotation Yrotation
                                JOINT LeftFinger01
                                {
                                    OFFSET   3.088130   0.000000   0.000000
                                    CHANNELS 3 Zrotation Xrotation Yrotation
                                    JOINT LeftFinger02
                                    {
                                        OFFSET   2.639460   0.000000   0.000000
                                        CHANNELS 3 Zrotation Xrotation Yrotation
                                        End Site
                                        {
                                            OFFSET   2.582190   0.000000   0.000000
                                        }
                                    }
                                }
                            }
                            JOINT LeftFinger1
                            {
                                OFFSET   8.364480   0.000000   3.252850
                                CHANNELS 3 Zrotation Xrotation Yrotation
                                JOINT LeftFinger11
                                {
                                    OFFSET   4.646930   0.000000   0.000000
                                    CHANNELS 3 Zrotation Xrotation Yrotation
                                    JOINT LeftFinger12
                                    {
                                        OFFSET   2.323460   0.000000   0.000000
                                        CHANNELS 3 Zrotation Xrotation Yrotation
                                        End Site
                                        {
                                            OFFSET   2.273050   0.000000   0.000000
                                        }
                                    }
                                }
                            }
                            JOINT LeftFinger2
                            {
                                OFFSET   8.364490   0.000015   1.078090
                                CHANNELS 3 Zrotation Xrotation Yrotation
                                JOINT LeftFinger21
                                {
                                    OFFSET   5.111620   0.000000   0.000000
                                    CHANNELS 3 Zrotation Xrotation Yrotation
                                    JOINT LeftFinger22
                                    {
                                        OFFSET   2.788160   0.000016   0.000000
                                        CHANNELS 3 Zrotation Xrotation Yrotation
                                        End Site
                                        {
                                            OFFSET   2.727660   0.000000   0.000000
                                        }
                                    }
                                }
                            }
                            JOINT LeftFinger3
                            {
                                OFFSET   7.899780   0.000017  -1.078090
                                CHANNELS 3 Zrotation Xrotation Yrotation
                                JOINT LeftFinger31
                                {
                                    OFFSET   4.646930   0.000000   0.000000
                                    CHANNELS 3 Zrotation Xrotation Yrotation
                                    JOINT LeftFinger32
                                    {
                                        OFFSET   2.323470   0.000000   0.000000
                                        CHANNELS 3 Zrotation Xrotation Yrotation
                                        End Site
                                        {
                                            OFFSET   2.273050   0.000000   0.000000
                                        }
                                    }
                                }
                            }
                            JOINT LeftFinger4
                            {
                                OFFSET   7.435090   0.000000  -3.252850
                                CHANNELS 3 Zrotation Xrotation Yrotation
                                JOINT LeftFinger41
                                {
                                    OFFSET   3.717550   0.000000   0.000000
                                    CHANNELS 3 Zrotation Xrotation Yrotation
                                    JOINT LeftFinger42
                                    {
                                        OFFSET   1.858770   0.000000   0.000000
                                        CHANNELS 3 Zrotation Xrotation Yrotation
                                        End Site
                                        {
                                            OFFSET   1.818440   0.000000   0.000000
                                        }
                                    }
                                }
                            }
                        }
                    }
                }
            }
            JOINT RightCollar
            {
                OFFSET  -3.911900  19.017000  -0.467063
                CHANNELS 3 Zrotation Xrotation Yrotation
                JOINT RightShoulder
                {
                    OFFSET -10.383700   0.000019   0.000000
                    CHANNELS 3 Zrotation Xrotation Yrotation
                    JOINT RightElbow
                    {
                        OFFSET -26.662100   0.001175   0.000102
                        CHANNELS 3 Zrotation Xrotation Yrotation
                        JOINT RightWrist
                        {
                            OFFSET -28.869000   0.000016  -0.000079
                            CHANNELS 3 Zrotation Xrotation Yrotation
                            JOINT RightFinger0
                            {
                                OFFSET  -2.044660  -2.323490   3.252850
                                CHANNELS 3 Zrotation Xrotation Yrotation
                                JOINT RightFinger01
                                {
                                    OFFSET  -3.088140   0.000000   0.000000
                                    CHANNELS 3 Zrotation Xrotation Yrotation
                                    JOINT RightFinger02
                                    {
                                        OFFSET  -2.639460   0.000000   0.000000
                                        CHANNELS 3 Zrotation Xrotation Yrotation
                                        End Site
                                        {
                                            OFFSET  -2.582190   0.000000   0.000000
                                        }
                                    }
                                }
                            }
                            JOINT RightFinger1
                            {
                                OFFSET  -8.364480   0.000000   3.252850
                                CHANNELS 3 Zrotation Xrotation Yrotation
                                JOINT RightFinger11
                                {
                                    OFFSET  -4.646930   0.000000   0.000000
                                    CHANNELS 3 Zrotation Xrotation Yrotation
                                    JOINT RightFinger12
                                    {
                                        OFFSET  -2.323470   0.000000   0.000000
                                        CHANNELS 3 Zrotation Xrotation Yrotation
                                        End Site
                                        {
                                            OFFSET  -2.273050   0.000000   0.000000
                                        }
                                    }
                                }
                            }
                            JOINT RightFinger2
                            {
                                OFFSET  -8.364480   0.000000   1.078090
                                CHANNELS 3 Zrotation Xrotation Yrotation
                                JOINT RightFinger21
                                {
                                    OFFSET  -5.111620   0.000000   0.000000
                                    CHANNELS 3 Zrotation Xrotation Yrotation
                                    JOINT RightFinger22
                                    {
                                        OFFSET  -2.788160   0.000000   0.000000
                                        CHANNELS 3 Zrotation Xrotation Yrotation
                                        End Site
                                        {
                                            OFFSET  -2.727660   0.000000   0.000000
                                        }
                                    }
                                }
                            }
                            JOINT RightFinger3
                            {
                                OFFSET  -7.899780   0.000000  -1.078090
                                CHANNELS 3 Zrotation Xrotation Yrotation
                                JOINT RightFinger31
                                {
                                    OFFSET  -4.646930   0.000000   0.000000
                                    CHANNELS 3 Zrotation Xrotation Yrotation
                                    JOINT RightFinger32
                                    {
                                        OFFSET  -2.323470   0.000000   0.000000
                                        CHANNELS 3 Zrotation Xrotation Yrotation
                                        End Site
                                        {
                                            OFFSET  -2.273050   0.000000   0.000000
                                        }
                                    }
                                }
                            }
                            JOINT RightFinger4
                            {
                                OFFSET  -7.435090   0.000000  -3.252850
                                CHANNELS 3 Zrotation Xrotation Yrotation
                                JOINT RightFinger41
                                {
                                    OFFSET  -3.717550   0.000000   0.000000
                                    CHANNELS 3 Zrotation Xrotation Yrotation
                                    JOINT RightFinger42
                                    {
                                        OFFSET  -1.858770   0.000000   0.000000
                                        CHANNELS 3 Zrotation Xrotation Yrotation
                                        End Site
                                        {
                                            OFFSET  -1.818440   0.000000   0.000000
                                        }
                                    }
                                }
                            }
                        }
                    }
                }
            }
        }
    }
    JOINT LeftHip
    {
        OFFSET   9.783040   0.000000   0.000000
        CHANNELS 3 Zrotation Xrotation Yrotation
        JOINT LeftKnee
        {
            OFFSET   0.000032 -41.789100  -0.002222
            CHANNELS 3 Zrotation Xrotation Yrotation
            JOINT LeftAnkle
            {
                OFFSET   0.000087 -41.133200  -0.000135
                CHANNELS 3 Zrotation Xrotation Yrotation
                JOINT LeftToe
                {
                    OFFSET   0.000000  -6.358960  14.674500
                    CHANNELS 3 Zrotation Xrotation Yrotation
                    End Site
                    {
                        OFFSET   0.000000   0.000000   3.913200
                    }
                }
            }
        }
    }
    JOINT RightHip
    {
        OFFSET  -9.783040   0.000000   0.000000
        CHANNELS 3 Zrotation Xrotation Yrotation
        JOINT RightKnee
        {
            OFFSET   0.000047 -41.789100  -0.000896
            CHANNELS 3 Zrotation Xrotation Yrotation
            JOINT RightAnkle
            {
                OFFSET  -0.000117 -41.133300  -0.000248
                CHANNELS 3 Zrotation Xrotation Yrotation
                JOINT RightToe
                {
                    OFFSET   0.000000  -6.358970  14.674500
                    CHANNELS 3 Zrotation Xrotation Yrotation
                    End Site
                    {
                        OFFSET   0.000000   0.000000   3.913200
                    }
                }
            }
        }
    }
}
MOTION
Frames: 5
Frame Time:   0.016667
 -6.422520  89.145600   2.391560  -4.126600  -8.502590  -6.407870   3.912710   5.722760  -5.208110   8.393060  11.049900 -10.875000   5.970980   0.632744  -0.064509   9.812890   1.239190  20.042100  -6.149630   4.791850   1.664320 -72.094200  24.937200 -15.115400  -4.442980  -4.544120 -12.754300   9.767310  -4.888400  11.041800  41.395900  30.690500 -63.392500 -25.322400  -0.000044   0.000025  -7.661230   0.000365   0.000840 -36.604800   7.205730  -9.585240 -30.443400   0.003343  -0.000482 -21.310400   0.001324  -0.000355 -29.465100   2.620990  -4.627470 -44.356500  -0.002097   0.000565 -29.541400  -0.001277  -0.001030 -30.518300  -0.782057   1.326630 -45.791000  -0.005981   0.002297 -30.496900  -0.004130  -0.000385 -41.738300  -1.599210   1.791670 -62.645000  -0.010121   0.002774 -41.721500  -0.003551  -0.000569   2.485180   1.401370  15.190500  44.371000  -4.791100  68.766700  -6.576010 -31.955100 120.990000   4.174870   4.378590  24.826400 -43.022100  40.193000  78.843000  28.928400   0.017240  -0.009135   9.464210   0.004499   0.002866  87.972900   4.994620   0.189138  73.742500   0.001169   0.061244  55.306800   0.039032   0.021370  87.012300  -0.020221  -0.000093  87.916700   0.011060   0.032166  65.937500   0.025607   0.002396  88.883600  -5.007220  -0.095268  89.862700   0.009544   0.014943  67.397000   0.013294  -0.002266  88.984600 -10.000300  -0.176305 110.000000   0.000000  -0.003380  80.000000  -0.002847   0.000000   7.465600  15.591100   4.445580   1.213380   0.372825  21.623500  -6.411930  -3.658430   1.172520   0.000000   0.000000   0.000000   3.612020   8.478760  -4.304940   2.460920   3.398030  -6.119740  -4.861770  -2.611760   0.287925   0.000000   0.000000  -0.000000
 -6.404530  89.145300   2.387660  -4.118050  -8.520750  -6.387990   3.908200   5.725260  -5.240960   8.387360  11.052800 -10.940900   5.915410   0.610554  -0.063296   9.721020   1.198480  20.269600  -6.137800   4.813440   1.700820 -72.104600  24.935000 -15.068700  -4.424430  -4.512640 -12.772000   9.758790  -4.895520  11.053700  41.397500  30.716100 -63.419800 -25.339800   0.000000   0.000069  -7.669910   0.000357   0.000827 -36.606500   7.204090  -9.582160 -30.445400   0.003477  -0.000511 -21.311800   0.001408  -0.000304 -29.465100   2.613000  -4.613450 -44.355600  -0.002085   0.000523 -29.540800  -0.001275  -0.001099 -30.512300  -0.782503   1.327490 -45.782100  -0.006017   0.002312 -30.490900  -0.004117  -0.000345 -41.734800  -1.598120   1.790680 -62.639700  -0.010203   0.002865 -41.718000  -0.003541  -0.000581   2.426260   1.460920  15.252900  44.396500  -5.309450  69.781200  -6.865750 -32.428800 120.664000   0.777703   3.505390  23.797900 -42.945300  40.690900  79.072500  29.679800   0.007671  -0.004427   9.839920   0.004430   0.002881  85.123800   5.136810   0.460995  68.925800  -0.011626   0.028426  51.694300   0.011394   0.020458  85.137200  -0.020483  -0.000069  84.769800  -0.001369   0.018054  63.577300   0.011765   0.007076  88.077600  -5.005180  -0.165809  87.697700  -0.000617   0.007903  65.773300   0.005288   0.001939  88.984600 -10.000200  -0.176311 110.000000   0.000000  -0.003425  80.000000  -0.002791  -0.000000   7.448350  15.601600   4.446090   1.207580   0.355438  21.600600  -6.393750  -3.638970   1.174860  -0.000000   0.000000   0.000000   3.593090   8.489610  -4.293690   2.459590   3.403380  -6.136300  -4.850710  -2.610150   0.275467  -0.000000   0.000000  -0.000000
 -6.387970  89.144900   2.385560  -4.106020  -8.540590  -6.376250   3.901140   5.726110  -5.274610   8.376730  11.052700 -11.007900   5.840670   0.606917  -0.061624   9.595400   1.194500  20.528000  -6.124100   4.850390   1.713970 -72.094700  24.949200 -15.036800  -4.423410  -4.528560 -12.761700   9.724240  -4.866130  11.059600  41.395200  30.715400 -63.409300 -25.343100   0.000068   0.000113  -7.671580   0.000342   0.000827 -36.618500   7.214720  -9.590060 -30.456700   0.003606  -0.000554 -21.319700   0.001493  -0.000243 -29.454800   2.605070  -4.602380 -44.340000  -0.002080   0.000470 -29.530400  -0.001274  -0.001164 -30.513800  -0.777597   1.318960 -45.784100  -0.006047   0.002324 -30.492300  -0.004095  -0.000315 -41.715700  -1.592180   1.785210 -62.610800  -0.010286   0.002954 -41.698800  -0.003526  -0.000601   2.352750   1.518480  15.302800  44.346400  -5.769350  70.864200  -7.192920 -33.033300 120.303000  -1.655310   3.179810  22.824500 -41.114700  39.738700  78.613400  30.735800   0.002972  -0.003246  10.367900   0.004404   0.002902  81.853900   5.372970   0.787811  66.273800  -0.007216   0.009576  49.705300   0.001590   0.010909  83.219500  -0.010179  -0.000027  82.859400  -0.000899   0.007876  62.144500   0.004556   0.004205  87.049900  -4.996800  -0.255312  86.679300  -0.000607   0.003382  65.009500   0.001820   0.001626  88.984600 -10.000200  -0.176306 110.000000   0.000000  -0.003471  80.000000  -0.002732   0.000000   7.426200  15.601500   4.446080   1.206990   0.367534  21.588500  -6.382020  -3.636520   1.175510   0.000000   0.000000   0.000000   3.569400   8.505450  -4.286360   2.455170   3.407720  -6.155290  -4.835710  -2.608520   0.278940   0.000000   0.000000  -0.000000
 -6.372520  89.144800   2.381540  -4.092120  -8.553350  -6.367800   3.893480   5.726090  -5.293910   8.362870  11.051800 -11.046200   5.747670   0.606398  -0.059868   9.445410   1.193040  20.678400  -6.115920   4.874670   1.716500 -72.065400  24.997400 -15.019900  -4.425070  -4.579450 -12.732500   9.686340  -4.823550  11.066500  41.393100  30.702000 -63.382100 -25.343600   0.000144   0.000153  -7.671820   0.000330   0.000827 -36.628700   7.226300  -9.603390 -30.466200   0.003733  -0.000597 -21.326400   0.001580  -0.000173 -29.437800   2.600680  -4.596890 -44.313300  -0.002076   0.000417 -29.512700  -0.001271  -0.001232 -30.515500  -0.765813   1.299000 -45.786200  -0.006073   0.002331 -30.493600  -0.004068  -0.000284 -41.685900  -1.582940   1.776680 -62.565800  -0.010367   0.003044 -41.668800  -0.003507  -0.000626   2.284560   1.550260  15.348400  44.258600  -6.176910  71.903300  -7.421750 -33.519000 120.138000  -2.753710   3.150610  21.891900 -38.854200  38.231500  78.066800  31.402600   0.001126  -0.003077  10.701300   0.004390   0.002922  79.805300   5.591610   0.998472  65.336000  -0.001183  -0.001768  49.002000  -0.001697  -0.000082  82.074800   0.000220   0.000000  82.074800   0.000096  -0.000192  61.556100  -0.000131  -0.000000  86.388900  -4.990150  -0.312805  86.402500  -0.000541  -0.000283  64.801900  -0.000318   0.000888  88.984600 -10.000100  -0.176301 110.000000   0.000000  -0.003517  80.000000  -0.002672   0.000000   7.399600  15.600400   4.446030   1.206350   0.379611  21.584600  -6.370120  -3.634950   1.176870  -0.000000   0.000000   0.000000   3.542800   8.515640  -4.282750   2.450230   3.410280  -6.173760  -4.819230  -2.606810   0.287291   0.000000   0.000000   0.000000
 -6.358350  89.146300   2.371640  -4.077870  -8.554920  -6.359890   3.888890   5.725810  -5.293750   8.353150  11.051400 -11.045700   5.635440   0.614602  -0.058474   9.263180   1.210670  20.677000  -6.119360   4.864640   1.697820 -72.014100  25.094800 -15.022600  -4.422260  -4.673470 -12.680100   9.667910  -4.799950  11.078400  41.396100  30.671300 -63.332200 -25.326100   0.000211   0.000175  -7.663100   0.000328   0.000826 -36.603100   7.226790  -9.613940 -30.446100   0.003862  -0.000625 -21.312300   0.001674  -0.000083 -29.414300   2.610720  -4.618300 -44.278400  -0.002071   0.000378 -29.489400  -0.001265  -0.001309 -30.496100  -0.748015   1.269850 -45.756200  -0.006093   0.002334 -30.473600  -0.004041  -0.000239 -41.639000  -1.568360   1.763270 -62.494700  -0.010446   0.003136 -41.621500  -0.003485  -0.000654   2.240100   1.509080  15.383200  44.220600  -6.588850  72.780700  -7.427580 -33.746900 120.298000  -2.232190   3.382630  20.984400 -37.509400  37.000300  77.967100  31.342900   0.004977  -0.004432  10.671500   0.004353   0.002933  79.880200   5.667090   1.002970  65.383600   0.000609  -0.005050  49.037700  -0.002955  -0.002350  82.037300   0.000316   0.000000  82.037300   0.001302  -0.004125  61.527900  -0.002319  -0.001981  86.468500  -4.991280  -0.304680  86.557200  -0.000227  -0.002920  64.917900  -0.002030  -0.000178  88.984600  -9.999960  -0.176303 110.000000   0.000000  -0.003562  80.000000  -0.002615  -0.000000   7.369870  15.592100   4.440250   1.206180   0.378776  21.585000  -6.353230  -3.632230   1.182220  -0.000000   0.000000  -0.000000   3.514980   8.515310  -4.284910   2.446260   3.410590  -6.188040  -4.803060  -2.605200   0.300491   0.000000   0.000000   0.000000
